<svg xmlns="http://www.w3.org/2000/svg" viewBox="0 0 1024 1024" width="512px" height="512px" fill="#28dc8e">
    <path transform="rotate(180),translate(-1024,-1024)" d="M983.04-25.6l-217.088 217.088c57.344 69.632 90.112 159.744 90.112 258.048C856.064 674.816 671.744 855.04 450.56 855.04s-405.504-184.32-405.504-405.504 184.32-405.504 405.504-405.504c98.304 0 184.32 32.768 258.048 90.112l217.088-217.088c8.192-8.192 20.48-12.288 28.672-12.288 12.288 0 20.48 4.096 28.672 12.288 16.384 12.288 16.384 40.96 0 57.344z m-405.504 167.936c-40.96-16.384-86.016-24.576-126.976-24.576s-86.016 8.192-126.976 24.576c-40.96 16.384-73.728 40.96-106.496 69.632-28.672 28.672-53.248 65.536-69.632 106.496-16.384 40.96-24.576 86.016-24.576 126.976s8.192 86.016 24.576 126.976c16.384 40.96 40.96 73.728 69.632 106.496C245.76 707.584 282.624 732.16 323.584 748.544 364.544 764.928 409.6 773.12 450.56 773.12s86.016-8.192 126.976-24.576c40.96-16.384 73.728-40.96 106.496-69.632 28.672-28.672 53.248-65.536 69.632-106.496 16.384-40.96 24.576-86.016 24.576-126.976s-8.192-86.016-24.576-126.976c-16.384-40.96-40.96-73.728-69.632-106.496-32.768-28.672-65.536-53.248-106.496-69.632z" />
</svg>
